<?xml version="1.0" encoding="UTF-8" standalone="no"?>
<!-- Created with Inkscape (http://www.inkscape.org/) -->

<svg
   width="512"
   height="512"
   viewBox="0 0 135.46666 135.46667"
   version="1.1"
   id="svg5018"
   xml:space="preserve"
   inkscape:version="1.2.2 (b0a8486541, 2022-12-01)"
   sodipodi:docname="mpqdraft2.svg"
   xmlns:inkscape="http://www.inkscape.org/namespaces/inkscape"
   xmlns:sodipodi="http://sodipodi.sourceforge.net/DTD/sodipodi-0.dtd"
   xmlns="http://www.w3.org/2000/svg"
   xmlns:svg="http://www.w3.org/2000/svg"><sodipodi:namedview
     id="namedview5020"
     pagecolor="#ffffff"
     bordercolor="#000000"
     borderopacity="0.25"
     inkscape:showpageshadow="2"
     inkscape:pageopacity="0.0"
     inkscape:pagecheckerboard="0"
     inkscape:deskcolor="#d1d1d1"
     inkscape:document-units="mm"
     showgrid="false"
     inkscape:zoom="1"
     inkscape:cx="193.5"
     inkscape:cy="231.5"
     inkscape:window-width="1854"
     inkscape:window-height="1131"
     inkscape:window-x="66"
     inkscape:window-y="32"
     inkscape:window-maximized="1"
     inkscape:current-layer="layer2" /><defs
     id="defs5015"><filter
       style="color-interpolation-filters:sRGB;"
       inkscape:label="Blur"
       id="filter1156"
       x="-1.0244937"
       y="-1.2721898"
       width="3.0489874"
       height="3.5443796"><feGaussianBlur
         stdDeviation="50 50"
         result="blur"
         id="feGaussianBlur1154" /></filter><filter
       style="color-interpolation-filters:sRGB;"
       inkscape:label="Blur"
       id="filter3929"
       x="-0.43258514"
       y="-0.53724563"
       width="1.8652134"
       height="2.074477"><feGaussianBlur
         stdDeviation="19.031092"
         result="blur"
         id="feGaussianBlur3927" /></filter><filter
       inkscape:collect="always"
       style="color-interpolation-filters:sRGB"
       id="filter5753"
       x="-0.041961571"
       y="-0.052127866"
       width="1.0839364"
       height="1.1042523"><feGaussianBlur
         inkscape:collect="always"
         stdDeviation="1.5277738"
         id="feGaussianBlur5755" /></filter></defs><g
     inkscape:groupmode="layer"
     id="layer3"
     inkscape:label="bg"><rect
       style="display:inline;fill:#000000;stroke:none;stroke-width:0.499999"
       id="rect414"
       width="136.41423"
       height="136.07611"
       x="-0.53661793"
       y="-0.32058024"
       inkscape:label="bg" /></g><g
     inkscape:groupmode="layer"
     id="layer2"
     inkscape:label="QD"><path
       d="m 49.094741,114.47501 c 0.22717,-0.24611 0.8006,-1.14552 1.27427,-1.99869 1.46844,-2.64494 3.91874,-6.84808 5.91282,-10.1426 1.27621,-2.10848 1.54955,-2.733898 1.54966,-3.545748 5e-5,-0.37507 -0.0765,-0.91203 -0.17011,-1.19324 -0.0936,-0.28122 -0.55274,-1.746315 -1.02028,-3.255773 -0.46753,-1.509459 -0.89581,-2.851862 -0.95173,-2.98312 -0.0559,-0.131257 -0.43645,-1.366269 -0.84562,-2.74447 -0.40918,-1.378201 -0.83662,-2.801149 -0.94988,-3.162107 -0.11326,-0.360957 -0.29151,-0.951615 -0.39612,-1.312572 -0.10461,-0.360958 -0.38046,-1.29402 -0.61299,-2.073472 -0.60454,-2.026407 -0.60674,-2.013288 0.4935,-2.941094 1.69245,-1.427199 2.12051,-1.813138 3.49872,-3.154483 2.38719,-2.323319 4.95383,-5.235561 6.26924,-7.11339 0.24943,-0.356081 0.65444,-0.915901 0.90001,-1.244044 1.17028,-1.563782 3.29095,-5.333901 4.22853,-7.517461 0.30997,-0.721915 0.68912,-1.591251 0.84256,-1.931859 0.52469,-1.16475 1.45777,-4.152381 1.819,-5.824254 0.75396,-3.489603 0.73527,-6.767939 -0.0575,-10.082944 -0.95613,-3.998072 -4.16373,-8.207165 -8.09525,-10.622795 -2.19913,-1.3512 -4.6335,-2.153751 -8.17375,-2.694678 -1.64821,-0.251836 -5.76792,-0.286466 -7.87544,-0.0662 -7.00599,0.732228 -13.58154,3.160652 -18.972637,7.006805 -3.49263,2.491738 -7.2197,6.122669 -9.995594,9.737765 -2.179852,2.838859 -4.59494,7.020981 -5.811253,10.063141 -0.183677,0.459401 -0.42706,1.050059 -0.540851,1.312573 -0.430427,0.992991 -1.5180794,4.719601 -1.7761404,6.085565 -0.336281,1.780005 -0.3965456,2.42764 -0.4552496,4.892316 -0.08009,3.362436 0.09449,4.738464 0.998616,7.871088 2.023004,7.009337 8.046572,11.61804 16.163624,12.366978 3.392395,0.313007 7.412245,-0.01023 10.687935,-0.85942 0.7348,-0.190489 1.43908,-0.346342 1.56507,-0.346342 0.28888,0 0.39971,0.298561 2.104,5.667927 0.22914,0.721915 0.62917,2.010623 0.88896,2.863795 0.25979,0.853172 0.90886,2.974165 1.44239,4.713323 0.53353,1.73916 1.03974,3.40374 1.12492,3.69907 0.15089,0.52315 0.62419,2.05402 1.38344,4.47468 0.20585,0.65629 0.58582,1.8913 0.84438,2.74447 0.52315,1.72622 0.99649,3.00583 1.21706,3.29009 0.45259,0.58332 0.96605,0.59061 1.49169,0.0212 z m -1.09262,-2.86379 c -0.78587,-2.39787 -5.05558,-16.273292 -6.93059,-22.522552 -0.63011,-2.100116 -1.19536,-3.93643 -1.25611,-4.080697 l -0.11046,-0.262305 -0.70804,0.287704 c -1.14391,0.464812 -3.39738,1.114053 -4.95482,1.427517 -4.46545,0.898759 -9.310481,0.583288 -13.017213,-0.84758 -5.663163,-2.186089 -9.146825,-6.527363 -10.3501,-12.898103 -0.359949,-1.905746 -0.387598,-5.975461 -0.05414,-7.968792 2.265517,-13.542686 12.471405,-26.369471 25.135853,-31.590796 7.18987,-2.964258 15.18274,-3.851012 21.3856,-2.372584 3.47832,0.829045 6.50788,2.723473 8.89806,5.56408 2.14767,2.552396 3.17108,4.714533 3.66952,7.752553 0.84121,5.127181 -0.27784,10.276068 -3.73525,17.186328 -1.33628,2.670783 -3.52829,6.095408 -5.37229,8.393225 -2.10006,2.6169 -5.61802,6.130084 -8.43849,8.427035 -0.78754,0.641364 -1.4781,1.208708 -1.53457,1.260765 -0.0565,0.05205 0.0691,0.676686 0.27902,1.388067 1.30753,4.430628 2.93938,9.834402 4.03004,13.345224 0.86791,2.793783 1.26248,4.244563 1.26719,4.659273 0.006,0.57185 -0.10504,0.79166 -2.2101,4.355358 -1.21932,2.06421 -2.88639,4.90758 -3.70459,6.3186 -1.76637,3.04618 -1.80091,3.10244 -1.90462,3.10244 -0.0445,0 -0.21721,-0.41614 -0.3839,-0.92476 z M 36.024981,75.122761 c 0.63988,-0.117071 1.16341,-0.263802 1.16341,-0.326068 0,-0.06227 -0.37108,-1.328825 -0.82462,-2.814575 -2.26328,-7.414236 -3.60222,-12.137348 -3.50937,-12.379318 0.039,-0.101543 0.20126,-0.234206 0.36066,-0.294806 0.47082,-0.179009 11.28304,-0.142443 11.52383,0.03897 0.1618,0.121903 1.6925,5.361544 2.87791,9.851139 l 0.13571,0.513975 0.73784,-0.667717 c 1.93227,-1.748599 4.27451,-5.346337 5.53797,-8.506424 0.50572,-1.264894 0.89792,-2.598322 1.20138,-4.0846 0.34477,-1.688548 0.36907,-4.407615 0.0517,-5.787253 -0.73757,-3.206487 -3.08138,-5.796091 -6.04121,-6.674757 -2.37813,-0.705979 -6.02004,-0.376132 -9.27488,0.840024 -6.04524,2.258773 -10.99135,6.911917 -14.18444,13.344256 -1.597271,3.217635 -2.244063,5.743002 -2.233001,8.718649 0.0076,2.038714 0.22755,3.117585 0.895652,4.392817 0.463988,0.885632 1.932439,2.403118 2.781246,2.874115 0.787153,0.436787 2.433183,0.984901 3.400753,1.132426 1.11904,0.170619 4.03787,0.07826 5.39945,-0.170855 z m -5.04147,-1.205841 c -2.25063,-0.30186 -4.386231,-1.662961 -5.217904,-3.325563 -0.731217,-1.461784 -0.808673,-1.848946 -0.799323,-3.995411 0.0079,-1.813022 0.03811,-2.079381 0.381677,-3.365213 1.340509,-5.016934 4.56616,-9.817271 9.21529,-13.713978 1.94723,-1.632089 5.50638,-3.324284 8.53172,-4.056404 1.56613,-0.378997 4.52707,-0.382341 5.72759,-0.0065 2.61458,0.818603 4.34556,2.616992 5.01682,5.212203 0.49887,1.928691 0.29701,5.136286 -0.48435,7.69645 -0.77849,2.550766 -2.74694,6.187431 -4.12332,7.617736 -0.40837,0.424367 -0.52467,0.489023 -0.6439,0.357975 -0.21268,-0.233771 -0.55661,-1.285451 -1.32055,-4.037993 -1.03757,-3.738404 -1.13787,-3.942753 -2.14097,-4.361875 -0.41383,-0.172908 -1.17686,-0.199044 -6.26292,-0.214513 -6.40936,-0.01949 -6.39722,-0.02075 -7.05418,0.727482 -0.3724,0.424139 -0.37822,0.449091 -0.31139,1.335119 0.0738,0.979015 0.48844,2.521462 1.99068,7.406103 0.53486,1.739159 1.05199,3.457436 1.14916,3.818393 0.38839,1.442685 0.64156,2.435769 0.64156,2.516621 0,0.286934 -3.01905,0.560564 -4.29569,0.389336 z m 47.96856,16.018558 c 5.71653,-0.04709 7.09174,-0.129522 9.12834,-0.547167 0.32815,-0.06729 0.90359,-0.17655 1.27877,-0.242793 0.7723,-0.136362 4.25961,-1.25846 5.16477,-1.661847 0.86507,-0.385521 3.637841,-1.756597 4.057041,-2.006124 0.19689,-0.117195 0.73385,-0.434841 1.19325,-0.70588 3.735128,-2.203678 8.288458,-6.202722 11.999668,-10.538934 1.0604,-1.238981 3.46981,-4.372408 4.33199,-5.633744 0.86682,-1.268111 2.46199,-3.769058 2.46199,-3.859964 0,-0.03136 0.13291,-0.267561 0.29535,-0.524891 0.57011,-0.90311 2.56083,-4.930976 3.29415,-6.66511 2.75961,-6.525882 3.89676,-11.29734 4.11448,-17.264194 0.23743,-6.507427 -1.25593,-11.4951 -4.40519,-14.712853 -1.15288,-1.177959 -1.82062,-1.674041 -3.29879,-2.450788 -3.0517,-1.603596 -6.12554,-2.269632 -11.45518,-2.482095 -3.52767,-0.140628 -15.220689,-0.04625 -16.460559,0.13286 -1.61326,0.233046 -2.77281,0.90953 -3.58671,2.092494 -0.44111,0.641137 -1.57969,2.926001 -2.31846,4.65263 -0.30888,0.721915 -0.66953,1.549455 -0.80143,1.838976 -0.32658,0.716817 -1.41133,3.208443 -1.58903,3.649964 -0.0792,0.196886 -0.23767,0.572759 -0.35206,0.835274 -0.11439,0.262514 -0.50483,1.175349 -0.86765,2.028521 -0.80847,1.901124 -2.48706,5.733051 -3.73735,8.531722 -1.10402,2.471246 -2.23736,5.060203 -3.57814,8.173748 -0.53697,1.246944 -1.27259,2.938373 -1.63471,3.758731 -0.92775,2.101754 -1.31841,2.990742 -2.35965,5.369616 -0.5027,1.148501 -1.04934,2.381402 -1.21476,2.73978 -0.16542,0.358376 -0.8542,1.942413 -1.53064,3.520081 -0.67643,1.577667 -1.61669,3.727624 -2.08945,4.777682 -0.47276,1.050058 -1.18267,2.660942 -1.57757,3.579743 -0.5727,1.332472 -2.78824,6.285735 -4.2965,9.605646 -0.72486,1.595513 -0.86798,2.629837 -0.45712,3.303647 0.29082,0.476963 0.60342,0.645666 1.36971,0.7392 0.59462,0.07258 7.49324,0.06021 18.92144,-0.03393 z m -18.78148,-1.448302 c -0.0965,-0.09654 -0.20745,-0.276096 -0.24646,-0.399008 -0.0459,-0.144638 1.0509,-2.764853 3.10901,-7.427262 1.74896,-3.962081 3.86434,-8.760973 4.70085,-10.664203 0.8365,-1.903231 2.71508,-6.172075 4.17463,-9.486321 1.45954,-3.314247 3.20517,-7.287762 3.87918,-8.830035 2.69923,-6.176417 9.55075,-21.592478 11.28659,-25.395076 0.54894,-1.202523 1.17576,-2.39399 1.39293,-2.647704 0.21717,-0.253713 0.68866,-0.605046 1.04776,-0.780739 0.59631,-0.291745 0.83139,-0.32804 2.71157,-0.418654 2.92657,-0.141043 16.662259,-0.134409 18.585129,0.009 4.40805,0.328702 7.57024,1.590418 9.94808,3.969296 1.92345,1.924283 3.23077,4.62516 3.83867,7.930572 0.261,1.419165 0.3597,5.194563 0.18689,7.149 -0.52279,5.91276 -2.28184,11.750124 -5.49612,18.238756 -3.26174,6.584435 -7.27045,12.220588 -12.17879,17.123107 -6.53349,6.525758 -13.701779,10.462775 -20.760309,11.402119 -1.8635,0.247994 -3.31732,0.280494 -15.47803,0.346005 -9.15725,0.04933 -10.54887,0.03388 -10.70158,-0.118826 z m 26.78812,-12.529882 c 4.14043,-0.660158 8.08961,-2.959467 11.947121,-6.955894 8.020578,-8.309424 12.802398,-22.343881 9.581508,-28.121349 -1.43123,-2.567276 -3.31143,-3.605893 -6.74425,-3.725504 -2.169318,-0.07559 -4.530808,0.116033 -4.726398,0.383519 -0.0798,0.109173 -0.533311,1.094034 -1.007731,2.18858 -0.47442,1.094544 -2.04302,4.674889 -3.48578,7.956321 -1.44276,3.281431 -2.98647,6.79853 -3.43046,7.815773 -2.43656,5.582429 -4.39246,10.038967 -6.44145,14.67695 -1.26123,2.854845 -2.36772,5.363052 -2.45888,5.573793 l -0.16572,0.383165 1.04375,0.04825 c 1.72373,0.07968 4.69342,-0.03309 5.88829,-0.223602 z m -4.12042,-1.39815 c -0.22605,-0.172518 -0.22393,-0.194049 0.10989,-1.116266 0.3799,-1.049529 1.88972,-4.64375 2.51726,-5.992462 0.2241,-0.481658 0.40746,-0.896212 0.40746,-0.921232 0,-0.02502 0.12835,-0.328987 0.28522,-0.675481 0.15686,-0.346495 1.21039,-2.724142 2.34117,-5.283658 1.92116,-4.348541 4.64227,-10.490157 5.12822,-11.574505 0.11764,-0.262515 0.56262,-1.282742 0.98884,-2.267171 2.643181,-6.104886 2.906501,-6.68127 3.476611,-7.610013 0.22619,-0.368483 0.99468,-0.490972 3.113168,-0.496206 2.79882,-0.0069 3.72928,0.284006 5.11037,1.597822 0.7528,0.716128 1.35266,1.804759 1.64663,2.988315 0.21156,0.851773 0.21251,4.055231 0.002,5.250291 -0.7098,4.020971 -2.28573,8.270211 -4.55819,12.290454 -3.03759,5.373849 -7.784539,10.177461 -12.173669,12.318989 -2.19223,1.069628 -3.88656,1.489752 -6.43383,1.595326 -1.42127,0.0589 -1.77137,0.0403 -1.9607,-0.104203 z"
       style="display:inline;mix-blend-mode:normal;fill:#00ff00;stroke:#5bfa00;stroke-width:10;stroke-dasharray:none;stroke-opacity:1;filter:url(#filter3929)"
       id="path13978"
       inkscape:label="QD green glow"
       transform="matrix(0.75941506,0,0,0.75941506,16.295621,16.295621)" /><path
       d="m 49.094741,114.47501 c 0.22717,-0.24611 0.8006,-1.14552 1.27427,-1.99869 1.46844,-2.64494 3.91874,-6.84808 5.91282,-10.1426 1.27621,-2.10848 1.54955,-2.733898 1.54966,-3.545748 5e-5,-0.37507 -0.0765,-0.91203 -0.17011,-1.19324 -0.0936,-0.28122 -0.55274,-1.746315 -1.02028,-3.255773 -0.46753,-1.509459 -0.89581,-2.851862 -0.95173,-2.98312 -0.0559,-0.131257 -0.43645,-1.366269 -0.84562,-2.74447 -0.40918,-1.378201 -0.83662,-2.801149 -0.94988,-3.162107 -0.11326,-0.360957 -0.29151,-0.951615 -0.39612,-1.312572 -0.10461,-0.360958 -0.38046,-1.29402 -0.61299,-2.073472 -0.60454,-2.026407 -0.60674,-2.013288 0.4935,-2.941094 1.69245,-1.427199 2.12051,-1.813138 3.49872,-3.154483 2.38719,-2.323319 4.95383,-5.235561 6.26924,-7.11339 0.24943,-0.356081 0.65444,-0.915901 0.90001,-1.244044 1.17028,-1.563782 3.29095,-5.333901 4.22853,-7.517461 0.30997,-0.721915 0.68912,-1.591251 0.84256,-1.931859 0.52469,-1.16475 1.45777,-4.152381 1.819,-5.824254 0.75396,-3.489603 0.73527,-6.767939 -0.0575,-10.082944 -0.95613,-3.998072 -4.16373,-8.207165 -8.09525,-10.622795 -2.19913,-1.3512 -4.6335,-2.153751 -8.17375,-2.694678 -1.64821,-0.251836 -5.76792,-0.286466 -7.87544,-0.0662 -7.00599,0.732228 -13.58154,3.160652 -18.972637,7.006805 -3.49263,2.491738 -7.2197,6.122669 -9.995594,9.737765 -2.179852,2.838859 -4.59494,7.020981 -5.811253,10.063141 -0.183677,0.459401 -0.42706,1.050059 -0.540851,1.312573 -0.430427,0.992991 -1.5180794,4.719601 -1.7761404,6.085565 -0.336281,1.780005 -0.3965456,2.42764 -0.4552496,4.892316 -0.08009,3.362436 0.09449,4.738464 0.998616,7.871088 2.023004,7.009337 8.046572,11.61804 16.163624,12.366978 3.392395,0.313007 7.412245,-0.01023 10.687935,-0.85942 0.7348,-0.190489 1.43908,-0.346342 1.56507,-0.346342 0.28888,0 0.39971,0.298561 2.104,5.667927 0.22914,0.721915 0.62917,2.010623 0.88896,2.863795 0.25979,0.853172 0.90886,2.974165 1.44239,4.713323 0.53353,1.73916 1.03974,3.40374 1.12492,3.69907 0.15089,0.52315 0.62419,2.05402 1.38344,4.47468 0.20585,0.65629 0.58582,1.8913 0.84438,2.74447 0.52315,1.72622 0.99649,3.00583 1.21706,3.29009 0.45259,0.58332 0.96605,0.59061 1.49169,0.0212 z m -1.09262,-2.86379 c -0.78587,-2.39787 -5.05558,-16.273292 -6.93059,-22.522552 -0.63011,-2.100116 -1.19536,-3.93643 -1.25611,-4.080697 l -0.11046,-0.262305 -0.70804,0.287704 c -1.14391,0.464812 -3.39738,1.114053 -4.95482,1.427517 -4.46545,0.898759 -9.310481,0.583288 -13.017213,-0.84758 -5.663163,-2.186089 -9.146825,-6.527363 -10.3501,-12.898103 -0.359949,-1.905746 -0.387598,-5.975461 -0.05414,-7.968792 2.265517,-13.542686 12.471405,-26.369471 25.135853,-31.590796 7.18987,-2.964258 15.18274,-3.851012 21.3856,-2.372584 3.47832,0.829045 6.50788,2.723473 8.89806,5.56408 2.14767,2.552396 3.17108,4.714533 3.66952,7.752553 0.84121,5.127181 -0.27784,10.276068 -3.73525,17.186328 -1.33628,2.670783 -3.52829,6.095408 -5.37229,8.393225 -2.10006,2.6169 -5.61802,6.130084 -8.43849,8.427035 -0.78754,0.641364 -1.4781,1.208708 -1.53457,1.260765 -0.0565,0.05205 0.0691,0.676686 0.27902,1.388067 1.30753,4.430628 2.93938,9.834402 4.03004,13.345224 0.86791,2.793783 1.26248,4.244563 1.26719,4.659273 0.006,0.57185 -0.10504,0.79166 -2.2101,4.355358 -1.21932,2.06421 -2.88639,4.90758 -3.70459,6.3186 -1.76637,3.04618 -1.80091,3.10244 -1.90462,3.10244 -0.0445,0 -0.21721,-0.41614 -0.3839,-0.92476 z M 36.024981,75.122761 c 0.63988,-0.117071 1.16341,-0.263802 1.16341,-0.326068 0,-0.06227 -0.37108,-1.328825 -0.82462,-2.814575 -2.26328,-7.414236 -3.60222,-12.137348 -3.50937,-12.379318 0.039,-0.101543 0.20126,-0.234206 0.36066,-0.294806 0.47082,-0.179009 11.28304,-0.142443 11.52383,0.03897 0.1618,0.121903 1.6925,5.361544 2.87791,9.851139 l 0.13571,0.513975 0.73784,-0.667717 c 1.93227,-1.748599 4.27451,-5.346337 5.53797,-8.506424 0.50572,-1.264894 0.89792,-2.598322 1.20138,-4.0846 0.34477,-1.688548 0.36907,-4.407615 0.0517,-5.787253 -0.73757,-3.206487 -3.08138,-5.796091 -6.04121,-6.674757 -2.37813,-0.705979 -6.02004,-0.376132 -9.27488,0.840024 -6.04524,2.258773 -10.99135,6.911917 -14.18444,13.344256 -1.597271,3.217635 -2.244063,5.743002 -2.233001,8.718649 0.0076,2.038714 0.22755,3.117585 0.895652,4.392817 0.463988,0.885632 1.932439,2.403118 2.781246,2.874115 0.787153,0.436787 2.433183,0.984901 3.400753,1.132426 1.11904,0.170619 4.03787,0.07826 5.39945,-0.170855 z m -5.04147,-1.205841 c -2.25063,-0.30186 -4.386231,-1.662961 -5.217904,-3.325563 -0.731217,-1.461784 -0.808673,-1.848946 -0.799323,-3.995411 0.0079,-1.813022 0.03811,-2.079381 0.381677,-3.365213 1.340509,-5.016934 4.56616,-9.817271 9.21529,-13.713978 1.94723,-1.632089 5.50638,-3.324284 8.53172,-4.056404 1.56613,-0.378997 4.52707,-0.382341 5.72759,-0.0065 2.61458,0.818603 4.34556,2.616992 5.01682,5.212203 0.49887,1.928691 0.29701,5.136286 -0.48435,7.69645 -0.77849,2.550766 -2.74694,6.187431 -4.12332,7.617736 -0.40837,0.424367 -0.52467,0.489023 -0.6439,0.357975 -0.21268,-0.233771 -0.55661,-1.285451 -1.32055,-4.037993 -1.03757,-3.738404 -1.13787,-3.942753 -2.14097,-4.361875 -0.41383,-0.172908 -1.17686,-0.199044 -6.26292,-0.214513 -6.40936,-0.01949 -6.39722,-0.02075 -7.05418,0.727482 -0.3724,0.424139 -0.37822,0.449091 -0.31139,1.335119 0.0738,0.979015 0.48844,2.521462 1.99068,7.406103 0.53486,1.739159 1.05199,3.457436 1.14916,3.818393 0.38839,1.442685 0.64156,2.435769 0.64156,2.516621 0,0.286934 -3.01905,0.560564 -4.29569,0.389336 z m 47.96856,16.018558 c 5.71653,-0.04709 7.09174,-0.129522 9.12834,-0.547167 0.32815,-0.06729 0.90359,-0.17655 1.27877,-0.242793 0.7723,-0.136362 4.25961,-1.25846 5.16477,-1.661847 0.86507,-0.385521 3.637841,-1.756597 4.057041,-2.006124 0.19689,-0.117195 0.73385,-0.434841 1.19325,-0.70588 3.735128,-2.203678 8.288458,-6.202722 11.999668,-10.538934 1.0604,-1.238981 3.46981,-4.372408 4.33199,-5.633744 0.86682,-1.268111 2.46199,-3.769058 2.46199,-3.859964 0,-0.03136 0.13291,-0.267561 0.29535,-0.524891 0.57011,-0.90311 2.56083,-4.930976 3.29415,-6.66511 2.75961,-6.525882 3.89676,-11.29734 4.11448,-17.264194 0.23743,-6.507427 -1.25593,-11.4951 -4.40519,-14.712853 -1.15288,-1.177959 -1.82062,-1.674041 -3.29879,-2.450788 -3.0517,-1.603596 -6.12554,-2.269632 -11.45518,-2.482095 -3.52767,-0.140628 -15.220689,-0.04625 -16.460559,0.13286 -1.61326,0.233046 -2.77281,0.90953 -3.58671,2.092494 -0.44111,0.641137 -1.57969,2.926001 -2.31846,4.65263 -0.30888,0.721915 -0.66953,1.549455 -0.80143,1.838976 -0.32658,0.716817 -1.41133,3.208443 -1.58903,3.649964 -0.0792,0.196886 -0.23767,0.572759 -0.35206,0.835274 -0.11439,0.262514 -0.50483,1.175349 -0.86765,2.028521 -0.80847,1.901124 -2.48706,5.733051 -3.73735,8.531722 -1.10402,2.471246 -2.23736,5.060203 -3.57814,8.173748 -0.53697,1.246944 -1.27259,2.938373 -1.63471,3.758731 -0.92775,2.101754 -1.31841,2.990742 -2.35965,5.369616 -0.5027,1.148501 -1.04934,2.381402 -1.21476,2.73978 -0.16542,0.358376 -0.8542,1.942413 -1.53064,3.520081 -0.67643,1.577667 -1.61669,3.727624 -2.08945,4.777682 -0.47276,1.050058 -1.18267,2.660942 -1.57757,3.579743 -0.5727,1.332472 -2.78824,6.285735 -4.2965,9.605646 -0.72486,1.595513 -0.86798,2.629837 -0.45712,3.303647 0.29082,0.476963 0.60342,0.645666 1.36971,0.7392 0.59462,0.07258 7.49324,0.06021 18.92144,-0.03393 z m -18.78148,-1.448302 c -0.0965,-0.09654 -0.20745,-0.276096 -0.24646,-0.399008 -0.0459,-0.144638 1.0509,-2.764853 3.10901,-7.427262 1.74896,-3.962081 3.86434,-8.760973 4.70085,-10.664203 0.8365,-1.903231 2.71508,-6.172075 4.17463,-9.486321 1.45954,-3.314247 3.20517,-7.287762 3.87918,-8.830035 2.69923,-6.176417 9.55075,-21.592478 11.28659,-25.395076 0.54894,-1.202523 1.17576,-2.39399 1.39293,-2.647704 0.21717,-0.253713 0.68866,-0.605046 1.04776,-0.780739 0.59631,-0.291745 0.83139,-0.32804 2.71157,-0.418654 2.92657,-0.141043 16.662259,-0.134409 18.585129,0.009 4.40805,0.328702 7.57024,1.590418 9.94808,3.969296 1.92345,1.924283 3.23077,4.62516 3.83867,7.930572 0.261,1.419165 0.3597,5.194563 0.18689,7.149 -0.52279,5.91276 -2.28184,11.750124 -5.49612,18.238756 -3.26174,6.584435 -7.27045,12.220588 -12.17879,17.123107 -6.53349,6.525758 -13.701779,10.462775 -20.760309,11.402119 -1.8635,0.247994 -3.31732,0.280494 -15.47803,0.346005 -9.15725,0.04933 -10.54887,0.03388 -10.70158,-0.118826 z m 26.78812,-12.529882 c 4.14043,-0.660158 8.08961,-2.959467 11.947121,-6.955894 8.020578,-8.309424 12.802398,-22.343881 9.581508,-28.121349 -1.43123,-2.567276 -3.31143,-3.605893 -6.74425,-3.725504 -2.169318,-0.07559 -4.530808,0.116033 -4.726398,0.383519 -0.0798,0.109173 -0.533311,1.094034 -1.007731,2.18858 -0.47442,1.094544 -2.04302,4.674889 -3.48578,7.956321 -1.44276,3.281431 -2.98647,6.79853 -3.43046,7.815773 -2.43656,5.582429 -4.39246,10.038967 -6.44145,14.67695 -1.26123,2.854845 -2.36772,5.363052 -2.45888,5.573793 l -0.16572,0.383165 1.04375,0.04825 c 1.72373,0.07968 4.69342,-0.03309 5.88829,-0.223602 z m -4.12042,-1.39815 c -0.22605,-0.172518 -0.22393,-0.194049 0.10989,-1.116266 0.3799,-1.049529 1.88972,-4.64375 2.51726,-5.992462 0.2241,-0.481658 0.40746,-0.896212 0.40746,-0.921232 0,-0.02502 0.12835,-0.328987 0.28522,-0.675481 0.15686,-0.346495 1.21039,-2.724142 2.34117,-5.283658 1.92116,-4.348541 4.64227,-10.490157 5.12822,-11.574505 0.11764,-0.262515 0.56262,-1.282742 0.98884,-2.267171 2.643181,-6.104886 2.906501,-6.68127 3.476611,-7.610013 0.22619,-0.368483 0.99468,-0.490972 3.113168,-0.496206 2.79882,-0.0069 3.72928,0.284006 5.11037,1.597822 0.7528,0.716128 1.35266,1.804759 1.64663,2.988315 0.21156,0.851773 0.21251,4.055231 0.002,5.250291 -0.7098,4.020971 -2.28573,8.270211 -4.55819,12.290454 -3.03759,5.373849 -7.784539,10.177461 -12.173669,12.318989 -2.19223,1.069628 -3.88656,1.489752 -6.43383,1.595326 -1.42127,0.0589 -1.77137,0.0403 -1.9607,-0.104203 z"
       style="display:inline;opacity:0.71;fill:#ffff00;stroke:#e4ec00;stroke-width:2.5;stroke-dasharray:none;stroke-opacity:1;filter:url(#filter5753)"
       id="path4507"
       inkscape:label="QD yellow"
       transform="matrix(0.75941506,0,0,0.75941506,16.295621,16.295621)" /><path
       d="m 53.578907,103.22966 c 0.172516,-0.1869 0.607987,-0.86993 0.967699,-1.51784 1.115156,-2.008592 2.975951,-5.200523 4.490285,-7.702432 0.969174,-1.601212 1.176752,-2.076163 1.176835,-2.692694 3.8e-5,-0.284834 -0.05808,-0.692609 -0.129184,-0.906164 -0.07109,-0.213564 -0.419759,-1.326179 -0.774816,-2.472484 -0.355049,-1.146306 -0.680291,-2.165746 -0.722758,-2.265425 -0.04245,-0.09968 -0.331446,-1.037566 -0.642177,-2.084193 -0.310737,-1.046627 -0.635341,-2.127234 -0.721353,-2.401352 -0.08601,-0.274116 -0.221377,-0.72267 -0.300819,-0.996786 -0.07944,-0.274117 -0.288927,-0.982698 -0.465514,-1.574626 -0.459097,-1.538885 -0.460767,-1.528922 0.374771,-2.233511 1.285272,-1.083836 1.610348,-1.376924 2.656981,-2.395562 1.812868,-1.764364 3.762013,-3.975964 4.760955,-5.402015 0.189421,-0.270413 0.496991,-0.695549 0.683482,-0.944746 0.888727,-1.187559 2.499197,-4.050645 3.211209,-5.708873 0.235396,-0.548233 0.523328,-1.20842 0.639853,-1.467084 0.398457,-0.884528 1.107052,-3.153379 1.381375,-4.423026 0.572569,-2.650057 0.558376,-5.139674 -0.04367,-7.657138 -0.7261,-3.036197 -3.161999,-6.232645 -6.147655,-8.067111 -1.670051,-1.026122 -3.518749,-1.635591 -6.207268,-2.046379 -1.251675,-0.191248 -4.380245,-0.217547 -5.980728,-0.05028 -5.320455,0.556065 -10.314026,2.400247 -14.408106,5.321073 -2.652357,1.892263 -5.48275,4.649647 -7.590805,7.395005 -1.655412,2.155873 -3.489466,5.331839 -4.413154,7.642101 -0.139486,0.348877 -0.324315,0.797431 -0.410729,0.996789 -0.326873,0.754091 -1.152853,3.584134 -1.348828,4.62147 -0.255377,1.351762 -0.301143,1.843585 -0.345724,3.715297 -0.06082,2.553486 0.07176,3.598461 0.758364,5.977423 1.536301,5.322996 6.110687,8.822913 12.2749,9.391669 2.576236,0.237702 5.628971,-0.0078 8.11658,-0.652656 0.558017,-0.144661 1.092858,-0.263018 1.188536,-0.263018 0.219381,0 0.303546,0.226731 1.597809,4.304309 0.174013,0.548234 0.477802,1.526898 0.67509,2.17481 0.197289,0.647911 0.690202,2.258624 1.095374,3.579368 0.40517,1.320744 0.789593,2.584851 0.854281,2.809129 0.114588,0.397288 0.474018,1.559851 1.050604,3.398141 0.156326,0.498398 0.444882,1.436281 0.641235,2.084181 0.397289,1.31093 0.75675,2.28268 0.924253,2.49854 0.343704,0.44299 0.733634,0.44853 1.132813,0.016 z m -0.829752,-2.17481 C 52.152353,99.233882 48.909871,88.696678 47.48596,83.950897 47.007446,82.356037 46.578186,80.961512 46.53205,80.851953 l -0.08389,-0.199198 -0.537696,0.218487 c -0.868702,0.352985 -2.580021,0.846028 -3.762764,1.084078 -3.39113,0.682531 -7.07052,0.442958 -9.885468,-0.643665 -4.30069,-1.660148 -6.946235,-4.956978 -7.860021,-9.795014 -0.27335,-1.447252 -0.294347,-4.537855 -0.04111,-6.051621 1.720468,-10.284519 9.470973,-20.025372 19.088546,-23.990525 5.460094,-2.251103 11.530001,-2.924517 16.240546,-1.801776 2.641489,0.629588 4.942183,2.068246 6.757321,4.225445 1.630973,1.938329 2.408166,3.580288 2.786689,5.887406 0.638828,3.893658 -0.210997,7.8038 -2.836606,13.051556 -1.014791,2.028233 -2.679435,4.628945 -4.079797,6.373942 -1.594818,1.987313 -4.266409,4.655278 -6.408316,6.399617 -0.598072,0.487061 -1.122491,0.917911 -1.165376,0.957444 -0.04291,0.03953 0.05248,0.513885 0.211891,1.054119 0.992959,3.364686 2.232211,7.468393 3.060474,10.134565 0.659104,2.12164 0.958746,3.223384 0.962322,3.538322 0.0046,0.43427 -0.07976,0.601198 -1.678382,3.307524 -0.925971,1.567593 -2.191969,3.726894 -2.813322,4.79844 -1.341408,2.313301 -1.367638,2.356041 -1.446397,2.356041 -0.0338,0 -0.164952,-0.31603 -0.291539,-0.70229 z M 43.653534,73.344976 c 0.485935,-0.0889 0.883511,-0.200335 0.883511,-0.24762 0,-0.0473 -0.281804,-1.009129 -0.626228,-2.137432 -1.718769,-5.630481 -2.735581,-9.217284 -2.665069,-9.401039 0.02961,-0.07711 0.15284,-0.177861 0.273891,-0.22388 0.357547,-0.135943 8.568511,-0.108175 8.75137,0.0296 0.122873,0.09257 1.28531,4.071637 2.185527,7.481103 l 0.103061,0.39032 0.560327,-0.507074 c 1.467395,-1.327912 3.246127,-4.060089 4.205617,-6.459906 0.384052,-0.960579 0.681895,-1.973205 0.912347,-3.101908 0.261824,-1.282308 0.280277,-3.347208 0.03926,-4.394925 -0.560122,-2.435054 -2.340046,-4.40164 -4.587785,-5.068912 -1.805989,-0.53613 -4.571711,-0.28564 -7.043483,0.637927 -4.590847,1.715347 -8.346997,5.249014 -10.771879,10.13383 -1.21299,2.44352 -1.704174,4.361321 -1.695774,6.621073 0.0058,1.54823 0.172805,2.36754 0.680172,3.335971 0.352359,0.672562 1.467523,1.824964 2.11212,2.182646 0.597776,0.331703 1.847796,0.747949 2.582582,0.859981 0.849817,0.12957 3.066419,0.05942 4.100425,-0.12975 z m -3.828568,-0.915733 c -1.709163,-0.229237 -3.33097,-1.262878 -3.962554,-2.525482 -0.555298,-1.110102 -0.61412,-1.404119 -0.607019,-3.034176 0.006,-1.376836 0.02895,-1.579113 0.289851,-2.555593 1.018004,-3.809935 3.46761,-7.455385 6.99823,-10.414603 1.478756,-1.239432 4.181628,-2.524511 6.479117,-3.080494 1.189343,-0.287816 3.437925,-0.290354 4.349618,-0.0049 1.985551,0.621661 3.300084,1.987384 3.80985,3.958225 0.378849,1.464678 0.225553,3.900573 -0.367824,5.844801 -0.591198,1.93709 -2.086067,4.698828 -3.131311,5.785023 -0.310122,0.32227 -0.398442,0.371372 -0.488988,0.271852 -0.161511,-0.177529 -0.422697,-0.976191 -1.002844,-3.066512 -0.787947,-2.839001 -0.864117,-2.994186 -1.625886,-3.312474 -0.314269,-0.13131 -0.893725,-0.151158 -4.756156,-0.162904 -4.867365,-0.01481 -4.858145,-0.01575 -5.35705,0.55246 -0.282806,0.322097 -0.287226,0.341046 -0.236475,1.01391 0.05605,0.743478 0.37093,1.914836 1.511753,5.624306 0.40618,1.320743 0.798896,2.625629 0.872689,2.899745 0.294949,1.095596 0.487211,1.849759 0.487211,1.911159 0,0.217903 -2.292713,0.425701 -3.262212,0.295668 z m 36.428047,12.164734 c 4.341218,-0.03576 5.385573,-0.09836 6.932198,-0.415527 0.249203,-0.05111 0.686201,-0.134075 0.971118,-0.184381 0.586496,-0.103556 3.234811,-0.955693 3.922204,-1.262031 0.656947,-0.292771 2.762631,-1.333986 3.080977,-1.523481 0.149522,-0.089 0.557297,-0.330225 0.906173,-0.536056 2.836513,-1.673507 6.294376,-4.71044 9.112727,-8.003425 0.80529,-0.940901 2.63503,-3.320473 3.28978,-4.27835 0.65828,-0.963023 1.86968,-2.862279 1.86968,-2.931316 0,-0.0238 0.10092,-0.203189 0.2243,-0.39861 0.43294,-0.685834 1.94472,-3.744657 2.50161,-5.061583 2.09569,-4.955854 2.95927,-8.579371 3.12461,-13.11069 0.18031,-4.941838 -0.95378,-8.729553 -3.34538,-11.173162 -0.8755,-0.89456 -1.3826,-1.271292 -2.50514,-1.861165 -2.31751,-1.217795 -4.65184,-1.723594 -8.69925,-1.88494 -2.678959,-0.106796 -11.558815,-0.03513 -12.50039,0.100896 -1.225134,0.176977 -2.105714,0.690711 -2.723802,1.58907 -0.334986,0.486889 -1.19964,2.22205 -1.760673,3.533278 -0.234569,0.548233 -0.508451,1.17668 -0.608619,1.396546 -0.248009,0.544362 -1.071785,2.43654 -1.206732,2.771837 -0.06014,0.149519 -0.180491,0.434962 -0.26736,0.63432 -0.08687,0.199357 -0.383375,0.892578 -0.658906,1.54049 -0.613965,1.443742 -1.888711,4.353764 -2.8382,6.479118 -0.838411,1.876701 -1.699085,3.842794 -2.717294,6.207267 -0.407782,0.946948 -0.966424,2.231446 -1.241424,2.854438 -0.704547,1.596103 -1.001219,2.271214 -1.791953,4.077766 -0.381758,0.872189 -0.796886,1.808473 -0.922508,2.08063 -0.125622,0.272156 -0.648692,1.475098 -1.162391,2.673203 -0.513691,1.198104 -1.227739,2.830814 -1.586759,3.628243 -0.359021,0.797432 -0.898138,2.02076 -1.198031,2.718511 -0.434917,1.011899 -2.117431,4.773482 -3.262826,7.294672 -0.55047,1.211657 -0.659157,1.997138 -0.347144,2.508839 0.220853,0.362214 0.458246,0.490329 1.040178,0.56136 0.451563,0.05513 5.690479,0.04573 14.369227,-0.02577 z M 61.990074,83.494115 c -0.07328,-0.07332 -0.157541,-0.209672 -0.187165,-0.303013 -0.03486,-0.10984 0.798069,-2.099671 2.361028,-5.640375 1.328187,-3.008864 2.934639,-6.653215 3.569896,-8.098557 0.635251,-1.445342 2.061874,-4.687166 3.170277,-7.204054 1.108397,-2.516889 2.434055,-5.534437 2.945908,-6.705662 2.049836,-4.690465 7.252984,-16.397653 8.571207,-19.285403 0.416873,-0.913214 0.89289,-1.818032 1.057811,-2.010707 0.164923,-0.192672 0.522979,-0.459479 0.795686,-0.592905 0.452846,-0.221555 0.63137,-0.249117 2.059207,-0.317932 2.222481,-0.10711 12.653577,-0.102072 14.113821,0.0068 3.34754,0.249621 5.74896,1.207787 7.55473,3.014342 1.4607,1.46133 2.45349,3.512417 2.91514,6.022596 0.19822,1.077736 0.27317,3.94483 0.14194,5.429058 -0.39702,4.49024 -1.73287,8.923222 -4.17385,13.850787 -2.47701,5.000319 -5.52129,9.280499 -9.248759,13.003545 -4.961627,4.95576 -10.405332,7.945589 -15.765687,8.65894 -1.41517,0.188332 -2.519223,0.213013 -11.754249,0.262763 -6.954153,0.03746 -8.010971,0.02573 -8.126941,-0.09024 z m 20.343302,-9.515381 c 3.144304,-0.501334 6.143371,-2.247465 9.072823,-5.282411 6.090944,-6.310303 9.722341,-16.96828 7.276338,-21.355776 -1.086896,-1.949628 -2.514746,-2.738369 -5.121682,-2.829204 -1.647412,-0.0574 -3.440763,0.08812 -3.589298,0.29125 -0.0606,0.08291 -0.405004,0.830826 -0.765284,1.66204 -0.360283,0.831214 -1.551502,3.550182 -2.647155,6.04215 -1.095654,2.491969 -2.26797,5.162906 -2.605143,5.935417 -1.850361,4.239381 -3.335701,7.623741 -4.891735,11.145896 -0.957796,2.168012 -1.798081,4.072782 -1.86731,4.232822 l -0.12585,0.290981 0.79264,0.03664 c 1.309025,0.06051 3.564254,-0.02513 4.471656,-0.169805 z m -3.129109,-1.061776 c -0.171666,-0.131014 -0.170056,-0.147364 0.08345,-0.84771 0.288503,-0.797028 1.435082,-3.526534 1.911645,-4.550766 0.170186,-0.365778 0.309431,-0.680597 0.309431,-0.699597 0,-0.019 0.09747,-0.249838 0.2166,-0.512971 0.119124,-0.263133 0.919189,-2.068754 1.777922,-4.01249 1.458957,-3.302347 3.525409,-7.966383 3.894447,-8.789852 0.08934,-0.199359 0.427262,-0.974135 0.750939,-1.721725 2.007272,-4.636141 2.207241,-5.073856 2.640192,-5.779158 0.171771,-0.279831 0.755373,-0.372851 2.364186,-0.376827 2.125466,-0.0052 2.832072,0.21568 3.88089,1.213411 0.571686,0.543838 1.027227,1.370561 1.250468,2.269371 0.160668,0.646849 0.161394,3.079604 0.0019,3.987151 -0.539029,3.053585 -1.735809,6.280522 -3.46155,9.333556 -2.306791,4.08098 -5.911696,7.728916 -9.244867,9.355226 -1.664812,0.812291 -2.951512,1.131338 -4.885946,1.211513 -1.079335,0.04473 -1.345205,0.0306 -1.488987,-0.07913 z"
       style="display:inline;fill:#ffffff;stroke:none;stroke-width:0.0906172"
       id="path1158"
       inkscape:label="QD" /><path
       style="fill:#000000;fill-opacity:1;stroke:none;stroke-width:7.59415;stroke-dasharray:none;stroke-opacity:1"
       d="m 62.036784,83.337674 c -0.07536,-0.07536 0.02991,-0.5605 0.233925,-1.078094 1.012134,-2.567807 19.700934,-44.840339 20.714552,-46.85462 1.00452,-1.996196 0.42537,-1.890287 10.33669,-1.890287 7.770939,0 8.771279,0.03707 9.945959,0.368541 4.59785,1.297436 7.14444,4.601644 7.64877,9.924283 0.70776,7.469754 -2.8524,17.522505 -9.16333,25.874318 C 96.521299,76.605852 90.534074,81.0359 84.037837,82.789828 l -1.967888,0.531311 -9.948072,0.07677 c -5.471443,0.04222 -10.009732,0.01511 -10.085093,-0.06024 z m 21.440079,-9.536931 c 5.036572,-1.288136 9.895399,-5.925974 13.156305,-12.557928 2.200863,-4.476067 2.922409,-7.283831 2.778004,-10.810154 -0.0706,-1.724419 -0.168634,-2.213271 -0.618283,-3.083818 -0.66006,-1.277929 -1.745169,-2.199836 -3.046035,-2.58794 -1.053566,-0.314325 -5.244243,-0.413113 -5.683537,-0.133984 -0.172026,0.109309 -11.318331,25.145333 -13.055635,29.324628 -0.184034,0.442716 4.58304,0.331593 6.469181,-0.150804 z"
       id="path4434"
       inkscape:label="D" /><path
       style="fill:#000000;fill-opacity:1;stroke:none;stroke-width:7.59415;stroke-dasharray:none;stroke-opacity:1"
       d="m 52.055446,98.405201 c -0.560509,-1.763005 -2.007713,-6.444759 -3.216011,-10.403906 -1.208296,-3.959146 -2.241857,-7.243399 -2.296798,-7.298341 -0.05494,-0.05494 -0.842037,0.134546 -1.7491,0.421087 -2.681717,0.847154 -5.030912,1.178483 -7.430192,1.047949 -6.262032,-0.340686 -10.58499,-3.433706 -12.401985,-8.873461 -0.489941,-1.466796 -0.537834,-1.888692 -0.547414,-4.822287 -0.009,-2.756105 0.0572,-3.472901 0.463883,-5.023212 2.037868,-7.76847 7.015817,-14.727563 13.791551,-19.28037 2.959359,-1.988478 7.186533,-3.690878 11.05836,-4.453512 2.543692,-0.501032 7.477048,-0.507235 9.587769,-0.01205 3.725414,0.873989 6.983588,3.42461 8.734782,6.837914 2.798061,5.453785 0.764302,13.754458 -5.373399,21.931236 -1.30048,1.732527 -5.701841,6.213698 -7.28021,7.412223 -0.414414,0.314681 -0.753482,0.689281 -0.753482,0.83244 0,0.143161 0.732409,2.686732 1.627576,5.652386 2.513425,8.326892 2.626898,8.741775 2.513685,9.190794 -0.05836,0.23144 -1.268239,2.409995 -2.688639,4.841231 -1.420401,2.43124 -2.681258,4.597018 -2.801907,4.812888 -0.184562,0.33019 -0.381033,-0.11606 -1.238469,-2.812997 z M 44.426794,73.247486 c 0.149287,-0.149289 -0.20824,-1.636484 -1.202854,-5.003444 -1.754255,-5.938486 -1.889585,-6.460325 -1.738696,-6.70447 0.191692,-0.310162 8.436918,-0.258118 8.692446,0.05486 0.112778,0.138138 0.678252,1.940788 1.256607,4.005885 l 1.051554,3.754724 0.480693,-0.314964 c 0.739654,-0.48464 2.815265,-3.353045 3.700901,-5.114486 0.437128,-0.869405 1.029106,-2.397639 1.315503,-3.396074 0.454425,-1.5842 0.510964,-2.102067 0.444054,-4.067274 -0.07164,-2.104062 -0.121307,-2.334863 -0.756432,-3.514815 -1.919743,-3.566563 -5.56442,-4.48684 -10.872424,-2.745276 -3.575045,1.172978 -7.12348,4.014761 -9.520904,7.624869 -1.122822,1.690775 -2.333682,4.28947 -2.741308,5.883269 -0.539913,2.111043 -0.52598,5.042518 0.02981,6.272909 0.718363,1.590272 2.049469,2.732441 3.9027,3.348753 0.952642,0.316812 5.623276,0.250594 5.958344,-0.08448 z"
       id="path4505"
       inkscape:label="Q" /></g></svg>
